<svg xmlns="http://www.w3.org/2000/svg" xmlns:xlink="http://www.w3.org/1999/xlink" viewBox="0 0 182.66 139.23"><defs><clipPath id="a" transform="translate(-420.67 -442.31)"><rect x="420.67" y="441.25" width="182.66" height="141.5" style="fill:none"/></clipPath></defs><title>Discord logo</title><g style="clip-path:url(#a)"><path d="M542.4,537.28c-9,0-16.42-8.26-16.42-18.41s7.27-18.41,16.42-18.41,16.56,8.34,16.42,18.41S551.62,537.28,542.4,537.28Zm-60.7,0c-9,0-16.42-8.26-16.42-18.41s7.27-18.41,16.42-18.41,16.56,8.34,16.42,18.41S490.85,537.28,481.71,537.28Zm93.59-83.43a150.63,150.63,0,0,0-37.18-11.53.56.56,0,0,0-.6.28,104.92,104.92,0,0,0-4.63,9.51,139.06,139.06,0,0,0-41.76,0,96.23,96.23,0,0,0-4.7-9.51.59.59,0,0,0-.6-.28,150.21,150.21,0,0,0-37.18,11.53.53.53,0,0,0-.24.21c-23.68,35.38-30.17,69.89-27,104a.63.63,0,0,0,.24.43,151.48,151.48,0,0,0,45.61,23.06.59.59,0,0,0,.64-.21,108.27,108.27,0,0,0,9.33-15.18.58.58,0,0,0-.32-.8,99.75,99.75,0,0,1-14.25-6.79.59.59,0,0,1-.06-1c1-.72,1.92-1.46,2.83-2.22a.56.56,0,0,1,.59-.08c29.89,13.65,62.26,13.65,91.8,0a.56.56,0,0,1,.6.07c.91.75,1.87,1.51,2.84,2.22a.59.59,0,0,1-.05,1A93.62,93.62,0,0,1,547,565.31a.58.58,0,0,0-.31.81A121.57,121.57,0,0,0,556,581.3a.58.58,0,0,0,.64.22,151,151,0,0,0,45.68-23.06.59.59,0,0,0,.24-.42c3.81-39.4-6.38-73.63-27-104A.47.47,0,0,0,575.3,453.85Z" transform="translate(-420.67 -442.31)" style="fill:#FFFFFF"/></g></svg>