<svg width="272" height="69" viewBox="0 0 272 69" fill="none" xmlns="http://www.w3.org/2000/svg">
<path d="M34.304 68.384C22.336 68.384 13.472 64.992 7.712 58.208C5.664 55.776 4 52.544 2.72 48.512C1.44 44.48 0.8 39.584 0.8 33.824C0.8 28.064 1.728 22.912 3.584 18.368C5.504 13.76 8.096 10.208 11.36 7.712C17.696 3.04 25.344 0.703997 34.304 0.703997C36.864 0.703997 39.36 0.927998 41.792 1.376C44.224 1.76 46.048 2.176 47.264 2.62399L48.992 3.296L48.704 4.256C44.352 2.528 39.552 1.664 34.304 1.664C27.52 1.664 21.856 3.872 17.312 8.288C13.856 11.552 11.424 16.352 10.016 22.688C9.184 26.272 8.768 30.656 8.768 35.84C8.768 41.024 9.504 45.824 10.976 50.24C12.448 54.592 14.112 57.824 15.968 59.936C17.888 62.048 20.192 63.744 22.88 65.024C25.568 66.24 27.712 66.944 29.312 67.136C30.912 67.328 32.832 67.424 35.072 67.424C37.376 67.424 39.968 67.2 42.848 66.752C45.728 66.304 47.904 65.888 49.376 65.504L51.584 64.832L51.872 65.792C47.008 67.52 41.152 68.384 34.304 68.384ZM68.018 68H60.05V0.799995H68.018V31.712H99.218V0.799995H107.186V68H99.218V32.672H68.018V68ZM138.561 68.384C131.841 68.384 126.369 66.464 122.145 62.624C117.921 58.784 115.809 52.864 115.809 44.864C115.809 36.864 117.985 30.656 122.337 26.24C126.753 21.824 132.321 19.616 139.041 19.616C145.825 19.616 151.329 21.536 155.553 25.376C159.777 29.216 161.889 35.136 161.889 43.136C161.889 51.136 159.681 57.344 155.265 61.76C150.913 66.176 145.345 68.384 138.561 68.384ZM139.233 20.384C134.369 20.384 130.337 22.56 127.137 26.912C123.937 31.2 122.337 37.216 122.337 44.96C122.337 52.64 123.809 58.336 126.753 62.048C129.697 65.76 133.601 67.616 138.465 67.616C143.329 67.616 147.361 65.472 150.561 61.184C153.761 56.832 155.361 50.816 155.361 43.136C155.361 35.392 153.889 29.664 150.945 25.952C148.001 22.24 144.097 20.384 139.233 20.384ZM180.376 0.799995V43.232L211.384 0.799995L212.152 1.472L194.968 24.896L220.504 68H211.576L190.072 31.616L180.376 44.96V68H172.408V0.799995H180.376ZM248.061 68.384C241.341 68.384 235.869 66.464 231.645 62.624C227.421 58.784 225.309 52.864 225.309 44.864C225.309 36.864 227.485 30.656 231.837 26.24C236.253 21.824 241.821 19.616 248.541 19.616C255.325 19.616 260.829 21.536 265.053 25.376C269.277 29.216 271.389 35.136 271.389 43.136C271.389 51.136 269.181 57.344 264.765 61.76C260.413 66.176 254.845 68.384 248.061 68.384ZM248.733 20.384C243.869 20.384 239.837 22.56 236.637 26.912C233.437 31.2 231.837 37.216 231.837 44.96C231.837 52.64 233.309 58.336 236.253 62.048C239.197 65.76 243.101 67.616 247.965 67.616C252.829 67.616 256.861 65.472 260.061 61.184C263.261 56.832 264.861 50.816 264.861 43.136C264.861 35.392 263.389 29.664 260.445 25.952C257.501 22.24 253.597 20.384 248.733 20.384Z" fill="black"/>
</svg>
