<svg width="800" height="800" viewBox="0 0 800 800" fill="none" xmlns="http://www.w3.org/2000/svg">
<circle cx="400" cy="400.001" r="400" fill="black"/>
<circle cx="400" cy="400.001" r="382.5" stroke="white" stroke-width="5"/>
<g clip-path="url(#clip0_517_32)">
<path d="M595.282 301.425C612.864 404.168 543.827 501.711 441.083 519.292C338.34 536.874 240.797 467.837 223.216 365.093C205.634 262.35 274.671 164.807 377.415 147.226C480.158 129.644 577.701 198.681 595.282 301.425Z" stroke="#D5F566" stroke-width="65"/>
<path d="M496.602 515.882C570.806 482.816 645.596 374.064 584.862 243.404" stroke="black" stroke-width="700"/>
<path d="M623.157 376.046L623.202 378.274" stroke="black" stroke-width="3" stroke-linecap="round"/>
<path d="M533.77 522.798L499.473 483.049L512.396 475.433L527.095 492.469L546.479 481.045L531.78 464.009L544.703 456.393L579 496.142L566.077 503.758L551.378 486.723L531.994 498.147L546.693 515.182L533.77 522.798Z" fill="white"/>
<path d="M599.137 457.755L592.435 454.389L589.069 461.091L555.557 444.261L558.923 437.559L552.221 434.193L569.05 400.682L575.753 404.048L579.119 397.345L612.63 414.175L609.264 420.877L615.966 424.243L599.137 457.755ZM595.8 447.686L605.898 427.58L572.387 410.75L562.289 430.857L595.8 447.686Z" fill="white"/>
<path d="M623.234 395.628L573.374 379.191L576.991 364.634L598.36 371.678L600.169 364.4L593.046 362.052L594.855 354.773L587.732 352.425L589.541 345.146L582.418 342.798L586.035 328.241L593.158 330.589L591.349 337.867L598.472 340.216L596.664 347.494L603.787 349.842L601.978 357.121L609.101 359.469L610.909 352.191L618.032 354.539L619.841 347.26L626.964 349.609L628.773 342.33L635.896 344.678L630.469 366.514L623.346 364.166L621.538 371.444L614.415 369.096L612.606 376.375L626.852 381.071L623.234 395.628Z" fill="white"/>
<path d="M629.027 306.523L621.531 306.28L622.522 313.715L585.041 312.499L584.051 305.065L576.555 304.822L571.601 267.65L579.097 267.893L578.107 260.459L615.587 261.675L616.578 269.109L624.074 269.352L629.027 306.523ZM620.54 298.846L617.568 276.543L580.088 275.328L583.06 297.63L620.54 298.846Z" fill="white"/>
<ellipse rx="72.9765" ry="46.7699" transform="matrix(0.400243 -0.922041 0.874771 0.475651 415.215 340.31)" fill="#D5F566"/>
</g>
<g filter="url(#filter0_d_517_32)">
<path d="M134.823 579.478L139.358 575.178L135.224 570.491L139.759 566.19L135.625 561.503L149.231 548.602L153.366 553.289L157.901 548.989L162.035 553.676L166.571 549.376L183.108 568.125L178.572 572.425L182.707 577.113L178.171 581.413L169.903 572.038L174.438 567.738L166.17 558.364L161.634 562.664L157.5 557.977L143.894 570.878L148.028 575.565L143.492 579.865L151.761 589.24L156.296 584.939L164.565 594.314L160.03 598.614L155.895 593.927L151.36 598.227L134.823 579.478Z" fill="white"/>
<path d="M162.668 609.964L189.545 575.443L199.131 583.465L191.452 593.329L210.623 609.374L206.784 614.305L211.577 618.317L196.219 638.043L186.633 630.02L201.991 610.294L187.612 598.26L172.254 617.987L162.668 609.964Z" fill="white"/>
<path d="M209.462 646.973L212.527 641.527L207.179 638.291L216.375 621.951L221.723 625.186L224.788 619.74L251.526 635.916L248.461 641.362L253.808 644.597L244.612 660.937L239.265 657.702L236.199 663.149L209.462 646.973ZM217.874 644.762L233.917 654.467L243.113 638.127L227.07 628.422L217.874 644.762Z" fill="white"/>
<path d="M249.944 670.688L265.563 629.821L277.125 634.572L268.2 657.924L279.762 662.674L281.994 656.836L287.775 659.212L290.006 653.373L301.568 658.124L299.337 663.962L293.556 661.587L291.324 667.425L285.543 665.05L283.312 670.888L289.093 673.263L286.862 679.101L292.643 681.476L290.411 687.314L278.849 682.564L281.081 676.726L275.3 674.351L277.531 668.513L265.969 663.762L261.506 675.438L249.944 670.688Z" fill="white"/>
<path d="M305.203 691.683L306.558 685.582L300.479 684.13L304.545 665.826L310.624 667.278L311.979 661.176L342.375 668.435L341.019 674.536L347.098 675.988L343.032 694.291L336.953 692.84L335.598 698.941L305.203 691.683ZM312.637 687.033L330.874 691.388L334.94 673.084L316.703 668.729L312.637 687.033Z" fill="white"/>
<path d="M409.326 705.091L408.871 698.857L402.64 699.346L399.913 661.945L412.375 660.968L414.193 685.902L420.424 685.414L418.606 660.48L424.837 659.991L426.655 684.925L432.886 684.437L431.068 659.503L443.529 658.526L446.256 695.927L440.026 696.415L440.48 702.649L434.249 703.137L433.795 696.904L427.564 697.392L427.109 691.159L420.878 691.647L421.333 697.881L415.102 698.369L415.557 704.602L409.326 705.091Z" fill="white"/>
<path d="M461.659 699.596L460.303 693.495L454.224 694.947L452.869 688.845L458.948 687.394L457.593 681.293L481.909 675.486L480.554 669.385L456.237 675.191L454.882 669.09L485.277 661.832L486.633 667.933L492.712 666.481L498.133 690.886L461.659 699.596ZM466.382 692.043L484.62 687.688L483.264 681.587L465.027 685.942L466.382 692.043Z" fill="white"/>
<path d="M512.624 686.067L510.392 680.229L521.954 675.479L510.798 646.288L505.017 648.663L502.785 642.825L520.129 635.7L533.517 670.728L545.079 665.978L547.31 671.816L512.624 686.067Z" fill="white"/>
<path d="M561.085 664.792L558.02 659.345L568.715 652.875L553.388 625.641L548.041 628.877L544.976 623.43L561.018 613.724L579.41 646.404L590.105 639.934L593.171 645.381L561.085 664.792Z" fill="white"/>
<path d="M605.955 636.224L602.115 631.292L597.322 635.303L585.804 620.508L590.597 616.497L586.757 611.566L610.722 591.509L614.562 596.441L619.355 592.43L627.034 602.293L603.069 622.349L606.908 627.281L626.08 611.236L629.92 616.167L605.955 636.224ZM599.229 617.418L613.608 605.384L609.769 600.452L595.39 612.486L599.229 617.418Z" fill="white"/>
<path d="M654.479 591.606L636.338 574.405L628.069 583.78L623.534 579.479L631.802 570.105L622.731 561.504L631 552.13L640.071 560.731L648.34 551.356L652.875 555.656L644.606 565.031L662.748 582.232L654.479 591.606Z" fill="white"/>
</g>
<defs>
<filter id="filter0_d_517_32" x="122.554" y="540.002" width="552.463" height="173.577" filterUnits="userSpaceOnUse" color-interpolation-filters="sRGB">
<feFlood flood-opacity="0" result="BackgroundImageFix"/>
<feColorMatrix in="SourceAlpha" type="matrix" values="0 0 0 0 0 0 0 0 0 0 0 0 0 0 0 0 0 0 127 0" result="hardAlpha"/>
<feOffset dy="4"/>
<feGaussianBlur stdDeviation="2"/>
<feComposite in2="hardAlpha" operator="out"/>
<feColorMatrix type="matrix" values="0 0 0 0 0 0 0 0 0 0 0 0 0 0 0 0 0 0 0.25 0"/>
<feBlend mode="normal" in2="BackgroundImageFix" result="effect1_dropShadow_517_32"/>
<feBlend mode="normal" in="SourceGraphic" in2="effect1_dropShadow_517_32" result="shape"/>
</filter>
<clipPath id="clip0_517_32">
<rect x="49" y="24.9011" width="588" height="695.177" rx="175" transform="rotate(-1.15976 49 24.9011)" fill="white"/>
</clipPath>
</defs>
</svg>
