<svg width="978" height="1004" viewBox="0 0 978 1004" fill="none" xmlns="http://www.w3.org/2000/svg">
<rect width="978" height="1004" fill="white"/>
<g clip-path="url(#clip0_509_6)">
<path d="M705.157 527.249L705.202 529.476" stroke="black" stroke-width="3" stroke-linecap="round"/>
<path d="M687.118 457.237C705.05 562.028 634.636 661.515 529.845 679.448C425.053 697.38 325.566 626.966 307.634 522.175C289.702 417.383 360.115 317.896 464.907 299.964C569.698 282.032 669.186 352.445 687.118 457.237Z" stroke="#D5F566" stroke-width="65"/>
<path d="M578.602 667.085C652.806 634.018 727.596 525.267 666.862 394.606" stroke="white" stroke-width="700"/>
<path d="M615.77 674.001L581.473 634.252L594.396 626.636L609.095 643.671L628.479 632.247L613.78 615.212L626.703 607.596L661 647.345L648.077 654.961L633.378 637.926L613.994 649.349L628.693 666.385L615.77 674.001Z" fill="black"/>
<path d="M681.137 608.957L674.435 605.591L671.069 612.293L637.557 595.464L640.923 588.762L634.221 585.396L651.05 551.884L657.753 555.25L661.119 548.548L694.63 565.377L691.264 572.08L697.966 575.446L681.137 608.957ZM677.8 598.889L687.898 578.782L654.387 561.952L644.289 582.059L677.8 598.889Z" fill="black"/>
<path d="M705.234 546.831L655.374 530.393L658.991 515.836L680.36 522.881L682.169 515.602L675.046 513.254L676.855 505.975L669.732 503.627L671.541 496.348L664.418 494L668.035 479.443L675.158 481.791L673.349 489.07L680.472 491.418L678.664 498.697L685.787 501.045L683.978 508.323L691.101 510.672L692.909 503.393L700.032 505.741L701.841 498.463L708.964 500.811L710.773 493.532L717.896 495.881L712.469 517.716L705.346 515.368L703.538 522.647L696.415 520.299L694.606 527.577L708.852 532.274L705.234 546.831Z" fill="black"/>
<path d="M711.027 457.726L703.531 457.483L704.522 464.917L667.041 463.702L666.051 456.267L658.555 456.024L653.601 418.853L661.097 419.096L660.107 411.662L697.587 412.877L698.578 420.311L706.074 420.555L711.027 457.726ZM702.54 450.049L699.568 427.746L662.088 426.53L665.06 448.833L702.54 450.049Z" fill="black"/>
<ellipse rx="72.9765" ry="46.7699" transform="matrix(0.400243 -0.922041 0.874771 0.475651 497.215 491.513)" fill="#D5F566"/>
</g>
<defs>
<clipPath id="clip0_509_6">
<rect width="598" height="707" fill="white" transform="translate(131 176.104) rotate(-1.15976)"/>
</clipPath>
</defs>
</svg>
