<svg width="800" height="800" viewBox="0 0 800 800" fill="none" xmlns="http://www.w3.org/2000/svg">
<circle cx="400" cy="400" r="400" fill="white"/>
<circle cx="400" cy="400" r="382.5" stroke="black" stroke-width="5"/>
<g clip-path="url(#clip0_519_52)">
<path d="M626.157 371.953L626.202 374.181" stroke="black" stroke-width="3" stroke-linecap="round"/>
<path d="M598.282 297.332C615.864 400.075 546.827 497.618 444.084 515.2C341.34 532.781 243.797 463.744 226.216 361.001C208.634 258.257 277.671 160.715 380.415 143.133C483.158 125.551 580.701 194.588 598.282 297.332Z" stroke="#D5F566" stroke-width="65"/>
<path d="M499.602 511.79C573.806 478.723 648.596 369.971 587.862 239.311" stroke="white" stroke-width="700"/>
<path d="M536.77 518.705L502.473 478.957L515.396 471.341L530.095 488.376L549.479 476.952L534.78 459.917L547.703 452.301L582 492.05L569.077 499.665L554.378 482.63L534.994 494.054L549.693 511.089L536.77 518.705Z" fill="black"/>
<path d="M602.137 453.662L595.435 450.296L592.069 456.998L558.557 440.169L561.923 433.466L555.221 430.1L572.05 396.589L578.753 399.955L582.119 393.253L615.63 410.082L612.264 416.784L618.966 420.15L602.137 453.662ZM598.8 443.594L608.898 423.487L575.387 406.657L565.289 426.764L598.8 443.594Z" fill="black"/>
<path d="M626.234 391.536L576.374 375.098L579.991 360.541L601.36 367.586L603.169 360.307L596.046 357.959L597.855 350.68L590.732 348.332L592.541 341.053L585.418 338.705L589.035 324.148L596.158 326.496L594.35 333.775L601.472 336.123L599.664 343.401L606.787 345.75L604.978 353.028L612.101 355.377L613.909 348.098L621.032 350.446L622.841 343.168L629.964 345.516L631.773 338.237L638.896 340.585L633.469 362.421L626.347 360.073L624.538 367.352L617.415 365.003L615.606 372.282L629.852 376.978L626.234 391.536Z" fill="black"/>
<path d="M632.027 302.431L624.531 302.187L625.522 309.622L588.042 308.406L587.051 300.972L579.555 300.729L574.601 263.557L582.097 263.8L581.107 256.366L618.587 257.582L619.578 265.016L627.074 265.259L632.027 302.431ZM623.541 294.753L620.568 272.45L583.088 271.235L586.06 293.538L623.541 294.753Z" fill="black"/>
<ellipse rx="72.9765" ry="46.7699" transform="matrix(0.400243 -0.922041 0.874771 0.475651 418.215 336.218)" fill="#D5F566"/>
</g>
<g filter="url(#filter0_d_519_52)">
<path d="M136.693 602.955L141.385 598.827L137.079 594.297L141.772 590.169L137.465 585.64L151.544 573.256L155.85 577.785L160.543 573.658L164.849 578.187L169.542 574.059L186.768 592.177L182.075 596.305L186.382 600.835L181.689 604.963L173.076 595.904L177.769 591.776L169.156 582.717L164.463 586.845L160.157 582.315L146.078 594.699L150.385 599.228L145.692 603.356L154.305 612.416L158.997 608.288L167.61 617.347L162.918 621.475L158.611 616.945L153.918 621.073L136.693 602.955Z" fill="black"/>
<path d="M163.708 631.035L191.832 597.522L201.706 605.188L193.67 614.764L213.417 630.095L209.399 634.883L214.336 638.716L198.265 657.866L188.392 650.2L204.463 631.05L189.653 619.551L173.582 638.701L163.708 631.035Z" fill="black"/>
<path d="M210.226 665.671L213.468 660.327L208.018 657.268L217.742 641.237L223.193 644.296L226.434 638.953L253.685 654.248L250.444 659.591L255.894 662.65L246.169 678.681L240.719 675.622L237.477 680.966L210.226 665.671ZM218.918 663.386L235.269 672.563L244.994 656.532L228.643 647.355L218.918 663.386Z" fill="black"/>
<path d="M250.359 687.874L267.024 647.423L278.705 651.875L269.182 674.99L280.862 679.442L283.243 673.663L289.083 675.889L291.464 670.11L303.144 674.563L300.763 680.341L294.923 678.115L292.542 683.894L286.702 681.668L284.321 687.447L290.162 689.673L287.781 695.452L293.621 697.678L291.24 703.457L279.56 699.004L281.941 693.226L276.101 691L278.481 685.221L266.801 680.769L262.04 692.326L250.359 687.874Z" fill="black"/>
<path d="M305.519 707.565L306.974 701.487L300.872 700.135L305.238 681.9L311.34 683.252L312.796 677.174L343.306 683.933L341.85 690.011L347.952 691.363L343.586 709.598L337.484 708.246L336.029 714.324L305.519 707.565ZM313.076 702.839L331.382 706.894L335.748 688.66L317.442 684.604L313.076 702.839Z" fill="black"/>
<path d="M409.576 720.063L409.086 713.832L402.852 714.286L399.914 676.901L412.381 675.994L414.34 700.917L420.574 700.464L418.615 675.541L424.848 675.088L426.807 700.011L433.041 699.558L431.082 674.634L443.549 673.728L446.487 711.113L440.254 711.566L440.743 717.797L434.51 718.25L434.02 712.019L427.787 712.472L427.297 706.242L421.063 706.695L421.553 712.926L415.319 713.379L415.809 719.61L409.576 720.063Z" fill="black"/>
<path d="M461.881 714.787L460.425 708.709L454.323 710.061L452.868 703.982L458.97 702.631L457.515 696.552L481.923 691.145L480.467 685.067L456.059 690.474L454.604 684.396L485.114 677.637L486.57 683.715L492.672 682.363L498.493 706.676L461.881 714.787ZM466.528 707.357L484.834 703.301L483.378 697.223L465.072 701.279L466.528 707.357Z" fill="black"/>
<path d="M512.737 701.941L510.356 696.162L522.036 691.71L510.133 662.816L504.293 665.042L501.912 659.263L519.432 652.585L533.717 687.258L545.397 682.806L547.778 688.584L512.737 701.941Z" fill="black"/>
<path d="M560.963 681.842L557.721 676.498L568.621 670.38L552.413 643.662L546.963 646.721L543.722 641.377L560.072 632.2L579.522 664.262L590.422 658.144L593.664 663.488L560.963 681.842Z" fill="black"/>
<path d="M605.452 654.98L601.434 650.193L596.497 654.026L584.444 639.663L589.381 635.83L585.363 631.042L610.047 611.878L614.064 616.665L619.001 612.832L627.036 622.407L602.353 641.572L606.371 646.36L626.117 631.028L630.135 635.815L605.452 654.98ZM598.335 636.785L613.145 625.286L609.128 620.498L594.318 631.997L598.335 636.785Z" fill="black"/>
<path d="M653.812 612.943L635.04 596.431L626.427 605.49L621.735 601.362L630.348 592.303L620.962 584.047L629.575 574.988L638.96 583.244L647.573 574.185L652.266 578.313L643.653 587.372L662.425 603.884L653.812 612.943Z" fill="black"/>
</g>
<defs>
<filter id="filter0_d_519_52" x="124.08" y="565" width="550.958" height="163.516" filterUnits="userSpaceOnUse" color-interpolation-filters="sRGB">
<feFlood flood-opacity="0" result="BackgroundImageFix"/>
<feColorMatrix in="SourceAlpha" type="matrix" values="0 0 0 0 0 0 0 0 0 0 0 0 0 0 0 0 0 0 127 0" result="hardAlpha"/>
<feOffset dy="4"/>
<feGaussianBlur stdDeviation="2"/>
<feComposite in2="hardAlpha" operator="out"/>
<feColorMatrix type="matrix" values="0 0 0 0 0 0 0 0 0 0 0 0 0 0 0 0 0 0 0.25 0"/>
<feBlend mode="normal" in2="BackgroundImageFix" result="effect1_dropShadow_519_52"/>
<feBlend mode="normal" in="SourceGraphic" in2="effect1_dropShadow_519_52" result="shape"/>
</filter>
<clipPath id="clip0_519_52">
<rect x="52" y="20.8083" width="588" height="695.177" rx="294" transform="rotate(-1.15976 52 20.8083)" fill="white"/>
</clipPath>
</defs>
</svg>
